<svg xmlns="http://www.w3.org/2000/svg" xmlns:xlink="http://www.w3.org/1999/xlink" width="100" zoomAndPan="magnify" viewBox="0 0 75 74.999997" height="100" preserveAspectRatio="xMidYMid meet" version="1.0"><defs><filter x="0%" y="0%" width="100%" height="100%" id="931d2f6808"><feColorMatrix values="0 0 0 0 1 0 0 0 0 1 0 0 0 0 1 0 0 0 1 0" color-interpolation-filters="sRGB"/></filter><g/><mask id="3b57b1a1f8"><g filter="url(#931d2f6808)"><rect x="-7.5" width="90" fill="#000000" y="-7.5" height="89.999996" fill-opacity="0.5"/></g></mask><clipPath id="e1708dd394"><rect x="0" width="56" y="0" height="55"/></clipPath></defs><rect x="-7.5" width="90" fill="#ffffff" y="-7.5" height="89.999996" fill-opacity="1"/><rect x="-7.5" width="90" fill="#ffffff" y="-7.5" height="89.999996" fill-opacity="1"/><g mask="url(#3b57b1a1f8)"><g transform="matrix(1, 0, 0, 1, 10, 7)"><g clip-path="url(#e1708dd394)"><path fill="#37474f" d="M 49.648438 27.125 C 49.648438 27.851562 49.613281 28.578125 49.542969 29.300781 C 49.472656 30.023438 49.367188 30.742188 49.222656 31.453125 C 49.082031 32.167969 48.90625 32.871094 48.695312 33.566406 C 48.484375 34.261719 48.238281 34.945312 47.960938 35.617188 C 47.683594 36.289062 47.371094 36.941406 47.03125 37.585938 C 46.6875 38.226562 46.3125 38.847656 45.910156 39.453125 C 45.507812 40.054688 45.074219 40.640625 44.613281 41.199219 C 44.152344 41.761719 43.664062 42.300781 43.152344 42.8125 C 42.636719 43.328125 42.101562 43.816406 41.539062 44.277344 C 40.976562 44.738281 40.394531 45.167969 39.789062 45.574219 C 39.183594 45.976562 38.5625 46.351562 37.921875 46.691406 C 37.28125 47.035156 36.625 47.34375 35.953125 47.625 C 35.28125 47.902344 34.597656 48.144531 33.902344 48.355469 C 33.207031 48.566406 32.503906 48.746094 31.792969 48.886719 C 31.078125 49.027344 30.359375 49.132812 29.636719 49.207031 C 28.914062 49.277344 28.1875 49.3125 27.460938 49.3125 C 26.734375 49.3125 26.011719 49.277344 25.289062 49.207031 C 24.566406 49.132812 23.847656 49.027344 23.132812 48.886719 C 22.421875 48.746094 21.71875 48.566406 21.023438 48.355469 C 20.328125 48.144531 19.644531 47.902344 18.972656 47.625 C 18.300781 47.34375 17.644531 47.035156 17.003906 46.691406 C 16.363281 46.351562 15.738281 45.976562 15.136719 45.574219 C 14.53125 45.167969 13.949219 44.738281 13.386719 44.277344 C 12.824219 43.816406 12.289062 43.328125 11.773438 42.8125 C 11.257812 42.300781 10.773438 41.761719 10.3125 41.199219 C 9.851562 40.640625 9.417969 40.054688 9.015625 39.453125 C 8.609375 38.847656 8.238281 38.226562 7.894531 37.585938 C 7.550781 36.941406 7.242188 36.289062 6.964844 35.617188 C 6.6875 34.945312 6.441406 34.261719 6.230469 33.566406 C 6.019531 32.871094 5.84375 32.167969 5.703125 31.453125 C 5.558594 30.742188 5.453125 30.023438 5.382812 29.300781 C 5.3125 28.578125 5.273438 27.851562 5.273438 27.125 C 5.273438 26.398438 5.3125 25.671875 5.382812 24.949219 C 5.453125 24.226562 5.558594 23.507812 5.703125 22.796875 C 5.84375 22.082031 6.019531 21.378906 6.230469 20.683594 C 6.441406 19.988281 6.6875 19.304688 6.964844 18.632812 C 7.242188 17.960938 7.550781 17.308594 7.894531 16.664062 C 8.238281 16.023438 8.609375 15.402344 9.015625 14.796875 C 9.417969 14.195312 9.851562 13.609375 10.3125 13.050781 C 10.773438 12.488281 11.257812 11.949219 11.773438 11.4375 C 12.289062 10.921875 12.824219 10.433594 13.386719 9.972656 C 13.949219 9.511719 14.53125 9.082031 15.136719 8.675781 C 15.738281 8.273438 16.363281 7.898438 17.003906 7.558594 C 17.644531 7.214844 18.300781 6.90625 18.972656 6.625 C 19.644531 6.347656 20.328125 6.105469 21.023438 5.894531 C 21.71875 5.683594 22.421875 5.503906 23.132812 5.363281 C 23.847656 5.222656 24.566406 5.117188 25.289062 5.042969 C 26.011719 4.972656 26.734375 4.9375 27.460938 4.9375 C 28.1875 4.9375 28.914062 4.972656 29.636719 5.042969 C 30.359375 5.117188 31.078125 5.222656 31.792969 5.363281 C 32.503906 5.503906 33.207031 5.683594 33.902344 5.894531 C 34.597656 6.105469 35.28125 6.347656 35.953125 6.625 C 36.625 6.90625 37.28125 7.214844 37.921875 7.558594 C 38.5625 7.898438 39.183594 8.273438 39.789062 8.675781 C 40.394531 9.082031 40.976562 9.511719 41.539062 9.972656 C 42.101562 10.433594 42.636719 10.921875 43.152344 11.4375 C 43.664062 11.949219 44.152344 12.488281 44.613281 13.050781 C 45.074219 13.609375 45.507812 14.195312 45.910156 14.796875 C 46.3125 15.402344 46.6875 16.023438 47.03125 16.664062 C 47.371094 17.308594 47.683594 17.960938 47.960938 18.632812 C 48.238281 19.304688 48.484375 19.988281 48.695312 20.683594 C 48.90625 21.378906 49.082031 22.082031 49.222656 22.796875 C 49.367188 23.507812 49.472656 24.226562 49.542969 24.949219 C 49.613281 25.671875 49.648438 26.398438 49.648438 27.125 Z M 49.648438 27.125 " fill-opacity="1" fill-rule="nonzero"/><path fill="#ff3d00" d="M 30.789062 36 C 30.789062 36.441406 30.707031 36.867188 30.539062 37.273438 C 30.367188 37.679688 30.128906 38.042969 29.816406 38.351562 C 29.503906 38.664062 29.144531 38.90625 28.734375 39.074219 C 28.328125 39.242188 27.902344 39.328125 27.460938 39.328125 C 27.019531 39.328125 26.597656 39.242188 26.1875 39.074219 C 25.78125 38.90625 25.421875 38.664062 25.109375 38.351562 C 24.796875 38.042969 24.554688 37.679688 24.386719 37.273438 C 24.21875 36.867188 24.132812 36.441406 24.132812 36 C 24.132812 35.558594 24.21875 35.132812 24.386719 34.726562 C 24.554688 34.320312 24.796875 33.957031 25.109375 33.648438 C 25.421875 33.335938 25.78125 33.09375 26.1875 32.925781 C 26.597656 32.757812 27.019531 32.671875 27.460938 32.671875 C 27.902344 32.671875 28.328125 32.757812 28.734375 32.925781 C 29.144531 33.09375 29.503906 33.335938 29.816406 33.648438 C 30.128906 33.957031 30.367188 34.320312 30.539062 34.726562 C 30.707031 35.132812 30.789062 35.558594 30.789062 36 Z M 30.789062 36 " fill-opacity="1" fill-rule="nonzero"/><path fill="#66bb6a" d="M 16.933594 20.976562 C 19.050781 17.359375 22.96875 14.921875 27.460938 14.921875 C 31.957031 14.921875 35.875 17.359375 37.992188 20.976562 L 43.75 17.652344 C 40.484375 12.042969 34.421875 8.265625 27.460938 8.265625 C 20.503906 8.265625 14.441406 12.042969 11.171875 17.652344 Z M 16.933594 20.976562 " fill-opacity="1" fill-rule="nonzero"/><path fill="#ffb300" d="M 34.53125 9.648438 C 32.347656 8.761719 29.964844 8.265625 27.460938 8.265625 C 20.503906 8.265625 14.441406 12.042969 11.171875 17.652344 L 16.933594 20.976562 C 19.050781 17.359375 22.96875 14.921875 27.460938 14.921875 C 29.105469 14.921875 30.667969 15.253906 32.09375 15.84375 Z M 34.53125 9.648438 " fill-opacity="1" fill-rule="nonzero"/><path fill="#ff3d00" d="M 27.5 37.589844 L 18.105469 25.363281 L 19.863281 24.011719 L 29.261719 36.238281 Z M 27.5 37.589844 " fill-opacity="1" fill-rule="nonzero"/><path fill="#cfd8dc" d="M 14.402344 31.378906 L 11.34375 31.378906 L 11.34375 33.957031 L 14.960938 33.957031 L 14.960938 35.582031 L 9.382812 35.582031 L 9.382812 25.871094 L 14.949219 25.871094 L 14.949219 27.503906 L 11.34375 27.503906 L 11.34375 29.800781 L 14.402344 29.800781 Z M 14.402344 31.378906 " fill-opacity="1" fill-rule="nonzero"/><path fill="#cfd8dc" d="M 45.65625 31.621094 L 42.605469 31.621094 L 42.605469 35.582031 L 40.644531 35.582031 L 40.644531 25.871094 L 46.023438 25.871094 L 46.023438 27.503906 L 42.605469 27.503906 L 42.605469 29.992188 L 45.65625 29.992188 Z M 45.65625 31.621094 " fill-opacity="1" fill-rule="nonzero"/><path fill="#cfd8dc" d="M 32.933594 16.246094 L 35.441406 10.054688 C 35.386719 10.03125 35.339844 10 35.285156 9.976562 L 35.359375 9.976562 L 33.402344 9.183594 L 30.875 15.417969 C 31.59375 15.628906 32.273438 15.914062 32.933594 16.246094 Z M 32.933594 16.246094 " fill-opacity="1" fill-rule="nonzero"/><path fill="#ff3d00" d="M 20.5 9.605469 C 16.570312 11.175781 13.285156 14.027344 11.171875 17.652344 L 16.933594 20.976562 C 18.269531 18.695312 20.320312 16.890625 22.777344 15.863281 Z M 20.5 9.605469 " fill-opacity="1" fill-rule="nonzero"/><path fill="#cfd8dc" d="M 19.640625 9.976562 C 19.609375 9.992188 19.582031 10.007812 19.554688 10.019531 L 22.007812 16.238281 C 22.667969 15.90625 23.347656 15.621094 24.066406 15.414062 L 21.605469 9.164062 L 19.539062 9.976562 Z M 19.640625 9.976562 " fill-opacity="1" fill-rule="nonzero"/></g></g></g><g fill="#37474f" fill-opacity="1"><g transform="translate(23.218758, 63.174992)"><g><path d="M 1.984375 0 L 0.390625 0 L 0.390625 -2.859375 L 1.984375 -2.859375 L 1.984375 -2.5625 L 0.71875 -2.5625 L 0.71875 -1.640625 L 1.90625 -1.640625 L 1.90625 -1.34375 L 0.71875 -1.34375 L 0.71875 -0.296875 L 1.984375 -0.296875 Z M 1.984375 0 "/></g></g><g transform="translate(25.443366, 63.174992)"><g><path d="M 1.71875 -0.578125 C 1.71875 -0.378906 1.644531 -0.222656 1.5 -0.109375 C 1.351562 -0.00390625 1.144531 0.046875 0.875 0.046875 C 0.59375 0.046875 0.375 0 0.21875 -0.09375 L 0.21875 -0.390625 C 0.320312 -0.335938 0.429688 -0.296875 0.546875 -0.265625 C 0.660156 -0.242188 0.773438 -0.234375 0.890625 -0.234375 C 1.054688 -0.234375 1.179688 -0.257812 1.265625 -0.3125 C 1.359375 -0.363281 1.40625 -0.445312 1.40625 -0.5625 C 1.40625 -0.644531 1.367188 -0.710938 1.296875 -0.765625 C 1.234375 -0.828125 1.09375 -0.898438 0.875 -0.984375 C 0.675781 -1.054688 0.535156 -1.117188 0.453125 -1.171875 C 0.367188 -1.234375 0.304688 -1.296875 0.265625 -1.359375 C 0.222656 -1.429688 0.203125 -1.515625 0.203125 -1.609375 C 0.203125 -1.785156 0.273438 -1.925781 0.421875 -2.03125 C 0.566406 -2.132812 0.757812 -2.1875 1 -2.1875 C 1.226562 -2.1875 1.457031 -2.140625 1.6875 -2.046875 L 1.5625 -1.78125 C 1.351562 -1.863281 1.160156 -1.90625 0.984375 -1.90625 C 0.828125 -1.90625 0.707031 -1.878906 0.625 -1.828125 C 0.550781 -1.785156 0.515625 -1.722656 0.515625 -1.640625 C 0.515625 -1.578125 0.53125 -1.523438 0.5625 -1.484375 C 0.59375 -1.453125 0.640625 -1.414062 0.703125 -1.375 C 0.765625 -1.34375 0.890625 -1.289062 1.078125 -1.21875 C 1.328125 -1.125 1.492188 -1.03125 1.578125 -0.9375 C 1.671875 -0.84375 1.71875 -0.722656 1.71875 -0.578125 Z M 1.71875 -0.578125 "/></g></g><g transform="translate(27.351568, 63.174992)"><g><path d="M 1.03125 -0.234375 C 1.09375 -0.234375 1.148438 -0.234375 1.203125 -0.234375 C 1.253906 -0.242188 1.296875 -0.253906 1.328125 -0.265625 L 1.328125 -0.015625 C 1.296875 -0.00390625 1.242188 0.00390625 1.171875 0.015625 C 1.109375 0.0351562 1.046875 0.046875 0.984375 0.046875 C 0.578125 0.046875 0.375 -0.171875 0.375 -0.609375 L 0.375 -1.890625 L 0.0625 -1.890625 L 0.0625 -2.046875 L 0.375 -2.1875 L 0.5 -2.640625 L 0.6875 -2.640625 L 0.6875 -2.140625 L 1.3125 -2.140625 L 1.3125 -1.890625 L 0.6875 -1.890625 L 0.6875 -0.625 C 0.6875 -0.5 0.71875 -0.398438 0.78125 -0.328125 C 0.84375 -0.265625 0.925781 -0.234375 1.03125 -0.234375 Z M 1.03125 -0.234375 "/></g></g><g transform="translate(28.763676, 63.174992)"><g><path d="M 1.65625 0 L 1.59375 -0.3125 L 1.578125 -0.3125 C 1.472656 -0.175781 1.367188 -0.0820312 1.265625 -0.03125 C 1.160156 0.0195312 1.023438 0.046875 0.859375 0.046875 C 0.648438 0.046875 0.484375 -0.0078125 0.359375 -0.125 C 0.242188 -0.238281 0.1875 -0.394531 0.1875 -0.59375 C 0.1875 -1.019531 0.53125 -1.242188 1.21875 -1.265625 L 1.578125 -1.28125 L 1.578125 -1.421875 C 1.578125 -1.585938 1.539062 -1.707031 1.46875 -1.78125 C 1.40625 -1.863281 1.289062 -1.90625 1.125 -1.90625 C 0.945312 -1.90625 0.75 -1.851562 0.53125 -1.75 L 0.421875 -2 C 0.523438 -2.050781 0.640625 -2.09375 0.765625 -2.125 C 0.890625 -2.15625 1.019531 -2.171875 1.15625 -2.171875 C 1.40625 -2.171875 1.59375 -2.113281 1.71875 -2 C 1.84375 -1.894531 1.90625 -1.71875 1.90625 -1.46875 L 1.90625 0 Z M 0.921875 -0.234375 C 1.128906 -0.234375 1.289062 -0.285156 1.40625 -0.390625 C 1.519531 -0.503906 1.578125 -0.660156 1.578125 -0.859375 L 1.578125 -1.046875 L 1.25 -1.046875 C 0.988281 -1.035156 0.800781 -0.992188 0.6875 -0.921875 C 0.582031 -0.847656 0.53125 -0.738281 0.53125 -0.59375 C 0.53125 -0.46875 0.5625 -0.375 0.625 -0.3125 C 0.695312 -0.257812 0.796875 -0.234375 0.921875 -0.234375 Z M 0.84375 -2.46875 C 0.90625 -2.550781 0.972656 -2.648438 1.046875 -2.765625 C 1.117188 -2.878906 1.175781 -2.976562 1.21875 -3.0625 L 1.609375 -3.0625 L 1.609375 -3.03125 C 1.554688 -2.9375 1.472656 -2.828125 1.359375 -2.703125 C 1.242188 -2.585938 1.144531 -2.492188 1.0625 -2.421875 L 0.84375 -2.421875 Z M 0.84375 -2.46875 "/></g></g><g transform="translate(30.988284, 63.174992)"><g/></g><g transform="translate(32.027346, 63.174992)"><g><path d="M 0.8125 0 L 0 -2.140625 L 0.34375 -2.140625 L 0.8125 -0.875 C 0.914062 -0.570312 0.976562 -0.378906 1 -0.296875 L 1.015625 -0.296875 C 1.023438 -0.359375 1.066406 -0.5 1.140625 -0.71875 C 1.222656 -0.9375 1.394531 -1.410156 1.65625 -2.140625 L 2 -2.140625 L 1.1875 0 Z M 0.8125 0 "/></g></g><g transform="translate(34.031251, 63.174992)"><g><path d="M 1.65625 0 L 1.59375 -0.3125 L 1.578125 -0.3125 C 1.472656 -0.175781 1.367188 -0.0820312 1.265625 -0.03125 C 1.160156 0.0195312 1.023438 0.046875 0.859375 0.046875 C 0.648438 0.046875 0.484375 -0.0078125 0.359375 -0.125 C 0.242188 -0.238281 0.1875 -0.394531 0.1875 -0.59375 C 0.1875 -1.019531 0.53125 -1.242188 1.21875 -1.265625 L 1.578125 -1.28125 L 1.578125 -1.421875 C 1.578125 -1.585938 1.539062 -1.707031 1.46875 -1.78125 C 1.40625 -1.863281 1.289062 -1.90625 1.125 -1.90625 C 0.945312 -1.90625 0.75 -1.851562 0.53125 -1.75 L 0.421875 -2 C 0.523438 -2.050781 0.640625 -2.09375 0.765625 -2.125 C 0.890625 -2.15625 1.019531 -2.171875 1.15625 -2.171875 C 1.40625 -2.171875 1.59375 -2.113281 1.71875 -2 C 1.84375 -1.894531 1.90625 -1.71875 1.90625 -1.46875 L 1.90625 0 Z M 0.921875 -0.234375 C 1.128906 -0.234375 1.289062 -0.285156 1.40625 -0.390625 C 1.519531 -0.503906 1.578125 -0.660156 1.578125 -0.859375 L 1.578125 -1.046875 L 1.25 -1.046875 C 0.988281 -1.035156 0.800781 -0.992188 0.6875 -0.921875 C 0.582031 -0.847656 0.53125 -0.738281 0.53125 -0.59375 C 0.53125 -0.46875 0.5625 -0.375 0.625 -0.3125 C 0.695312 -0.257812 0.796875 -0.234375 0.921875 -0.234375 Z M 0.921875 -0.234375 "/></g></g><g transform="translate(36.255859, 63.174992)"><g><path d="M 1.71875 0 L 0.15625 0 L 0.15625 -0.21875 L 1.328125 -1.890625 L 0.234375 -1.890625 L 0.234375 -2.140625 L 1.6875 -2.140625 L 1.6875 -1.890625 L 0.53125 -0.25 L 1.71875 -0.25 Z M 1.71875 0 "/></g></g><g transform="translate(38.126952, 63.174992)"><g><path d="M 0.671875 0 L 0.34375 0 L 0.34375 -2.140625 L 0.671875 -2.140625 Z M 0.3125 -2.71875 C 0.3125 -2.789062 0.328125 -2.84375 0.359375 -2.875 C 0.398438 -2.914062 0.453125 -2.9375 0.515625 -2.9375 C 0.566406 -2.9375 0.609375 -2.914062 0.640625 -2.875 C 0.679688 -2.84375 0.703125 -2.789062 0.703125 -2.71875 C 0.703125 -2.644531 0.679688 -2.585938 0.640625 -2.546875 C 0.609375 -2.515625 0.566406 -2.5 0.515625 -2.5 C 0.453125 -2.5 0.398438 -2.515625 0.359375 -2.546875 C 0.328125 -2.585938 0.3125 -2.644531 0.3125 -2.71875 Z M 0.3125 -2.71875 "/></g></g><g transform="translate(39.13867, 63.174992)"><g><path d="M 2.1875 -1.078125 C 2.1875 -0.722656 2.097656 -0.445312 1.921875 -0.25 C 1.753906 -0.0507812 1.515625 0.046875 1.203125 0.046875 C 1.003906 0.046875 0.832031 0 0.6875 -0.09375 C 0.539062 -0.1875 0.425781 -0.316406 0.34375 -0.484375 C 0.257812 -0.648438 0.21875 -0.847656 0.21875 -1.078125 C 0.21875 -1.421875 0.304688 -1.691406 0.484375 -1.890625 C 0.660156 -2.085938 0.90625 -2.1875 1.21875 -2.1875 C 1.507812 -2.1875 1.742188 -2.082031 1.921875 -1.875 C 2.097656 -1.675781 2.1875 -1.410156 2.1875 -1.078125 Z M 0.5625 -1.078125 C 0.5625 -0.796875 0.613281 -0.582031 0.71875 -0.4375 C 0.832031 -0.300781 0.992188 -0.234375 1.203125 -0.234375 C 1.421875 -0.234375 1.582031 -0.300781 1.6875 -0.4375 C 1.800781 -0.582031 1.859375 -0.796875 1.859375 -1.078125 C 1.859375 -1.347656 1.800781 -1.550781 1.6875 -1.6875 C 1.582031 -1.832031 1.421875 -1.90625 1.203125 -1.90625 C 0.992188 -1.90625 0.832031 -1.832031 0.71875 -1.6875 C 0.613281 -1.550781 0.5625 -1.347656 0.5625 -1.078125 Z M 0.5625 -1.078125 "/></g></g><g transform="translate(41.554684, 63.174992)"><g/></g><g transform="translate(42.593746, 63.174992)"><g><path d="M 1.65625 0 L 1.59375 -0.3125 L 1.578125 -0.3125 C 1.472656 -0.175781 1.367188 -0.0820312 1.265625 -0.03125 C 1.160156 0.0195312 1.023438 0.046875 0.859375 0.046875 C 0.648438 0.046875 0.484375 -0.0078125 0.359375 -0.125 C 0.242188 -0.238281 0.1875 -0.394531 0.1875 -0.59375 C 0.1875 -1.019531 0.53125 -1.242188 1.21875 -1.265625 L 1.578125 -1.28125 L 1.578125 -1.421875 C 1.578125 -1.585938 1.539062 -1.707031 1.46875 -1.78125 C 1.40625 -1.863281 1.289062 -1.90625 1.125 -1.90625 C 0.945312 -1.90625 0.75 -1.851562 0.53125 -1.75 L 0.421875 -2 C 0.523438 -2.050781 0.640625 -2.09375 0.765625 -2.125 C 0.890625 -2.15625 1.019531 -2.171875 1.15625 -2.171875 C 1.40625 -2.171875 1.59375 -2.113281 1.71875 -2 C 1.84375 -1.894531 1.90625 -1.71875 1.90625 -1.46875 L 1.90625 0 Z M 0.921875 -0.234375 C 1.128906 -0.234375 1.289062 -0.285156 1.40625 -0.390625 C 1.519531 -0.503906 1.578125 -0.660156 1.578125 -0.859375 L 1.578125 -1.046875 L 1.25 -1.046875 C 0.988281 -1.035156 0.800781 -0.992188 0.6875 -0.921875 C 0.582031 -0.847656 0.53125 -0.738281 0.53125 -0.59375 C 0.53125 -0.46875 0.5625 -0.375 0.625 -0.3125 C 0.695312 -0.257812 0.796875 -0.234375 0.921875 -0.234375 Z M 0.921875 -0.234375 "/></g></g><g transform="translate(44.818354, 63.174992)"><g><path d="M 1.15625 -0.234375 C 1.375 -0.234375 1.53125 -0.289062 1.625 -0.40625 C 1.726562 -0.519531 1.78125 -0.71875 1.78125 -1 L 1.78125 -1.0625 C 1.78125 -1.363281 1.726562 -1.578125 1.625 -1.703125 C 1.53125 -1.835938 1.375 -1.90625 1.15625 -1.90625 C 0.957031 -1.90625 0.804688 -1.832031 0.703125 -1.6875 C 0.609375 -1.539062 0.5625 -1.332031 0.5625 -1.0625 C 0.5625 -0.789062 0.609375 -0.582031 0.703125 -0.4375 C 0.804688 -0.300781 0.957031 -0.234375 1.15625 -0.234375 Z M 1.109375 0.046875 C 0.828125 0.046875 0.609375 -0.0507812 0.453125 -0.25 C 0.296875 -0.445312 0.21875 -0.71875 0.21875 -1.0625 C 0.21875 -1.414062 0.296875 -1.691406 0.453125 -1.890625 C 0.609375 -2.085938 0.828125 -2.1875 1.109375 -2.1875 C 1.398438 -2.1875 1.625 -2.070312 1.78125 -1.84375 L 1.8125 -1.84375 L 1.859375 -2.140625 L 2.109375 -2.140625 L 2.109375 0.96875 L 1.78125 0.96875 L 1.78125 0.046875 C 1.78125 -0.0859375 1.789062 -0.195312 1.8125 -0.28125 L 1.78125 -0.28125 C 1.632812 -0.0625 1.410156 0.046875 1.109375 0.046875 Z M 1.109375 0.046875 "/></g></g><g transform="translate(47.269524, 63.174992)"><g><path d="M 0.65625 -2.140625 L 0.65625 -0.75 C 0.65625 -0.570312 0.691406 -0.441406 0.765625 -0.359375 C 0.847656 -0.273438 0.972656 -0.234375 1.140625 -0.234375 C 1.367188 -0.234375 1.53125 -0.289062 1.625 -0.40625 C 1.726562 -0.53125 1.78125 -0.734375 1.78125 -1.015625 L 1.78125 -2.140625 L 2.109375 -2.140625 L 2.109375 0 L 1.84375 0 L 1.796875 -0.28125 L 1.78125 -0.28125 C 1.71875 -0.175781 1.625 -0.09375 1.5 -0.03125 C 1.382812 0.0195312 1.25 0.046875 1.09375 0.046875 C 0.832031 0.046875 0.640625 -0.015625 0.515625 -0.140625 C 0.390625 -0.265625 0.328125 -0.460938 0.328125 -0.734375 L 0.328125 -2.140625 Z M 0.65625 -2.140625 "/></g></g><g transform="translate(49.724601, 63.174992)"><g><path d="M 0.671875 0 L 0.34375 0 L 0.34375 -2.140625 L 0.671875 -2.140625 Z M 0.3125 -2.71875 C 0.3125 -2.789062 0.328125 -2.84375 0.359375 -2.875 C 0.398438 -2.914062 0.453125 -2.9375 0.515625 -2.9375 C 0.566406 -2.9375 0.609375 -2.914062 0.640625 -2.875 C 0.679688 -2.84375 0.703125 -2.789062 0.703125 -2.71875 C 0.703125 -2.644531 0.679688 -2.585938 0.640625 -2.546875 C 0.609375 -2.515625 0.566406 -2.5 0.515625 -2.5 C 0.453125 -2.5 0.398438 -2.515625 0.359375 -2.546875 C 0.328125 -2.585938 0.3125 -2.644531 0.3125 -2.71875 Z M 0.3125 -2.71875 "/></g></g></g><g fill="#37474f" fill-opacity="1"><g transform="translate(50.739574, 63.174992)"><g/></g></g></svg>