<svg xmlns="http://www.w3.org/2000/svg" xmlns:xlink="http://www.w3.org/1999/xlink" width="50" zoomAndPan="magnify" viewBox="0 0 37.5 37.499999" height="50" preserveAspectRatio="xMidYMid meet" version="1.0"><defs><clipPath id="de22ebed2f"><path d="M 18 1 L 36.84375 1 L 36.84375 20 L 18 20 Z M 18 1 " clip-rule="nonzero"/></clipPath><clipPath id="8723e31c1d"><path d="M 3 33 L 10 33 L 10 36.84375 L 3 36.84375 Z M 3 33 " clip-rule="nonzero"/></clipPath><clipPath id="80915249f9"><path d="M 21 33 L 27 33 L 27 36.84375 L 21 36.84375 Z M 21 33 " clip-rule="nonzero"/></clipPath><clipPath id="2e663d85d2"><path d="M 0.84375 0.84375 L 36.84375 0.84375 L 36.84375 36.84375 L 0.84375 36.84375 Z M 0.84375 0.84375 " clip-rule="nonzero"/></clipPath><clipPath id="0c85c759ae"><path d="M 20.398438 2.023438 L 34.875 2.023438 L 34.875 16.5 L 20.398438 16.5 Z M 20.398438 2.023438 " clip-rule="nonzero"/></clipPath><clipPath id="29b1532061"><path d="M 27.636719 2.023438 C 23.640625 2.023438 20.398438 5.265625 20.398438 9.261719 C 20.398438 13.257812 23.640625 16.5 27.636719 16.5 C 31.632812 16.5 34.875 13.257812 34.875 9.261719 C 34.875 5.265625 31.632812 2.023438 27.636719 2.023438 Z M 27.636719 2.023438 " clip-rule="nonzero"/></clipPath><clipPath id="9a03d84ae4"><path d="M 21.449219 3.75 L 33.449219 3.75 L 33.449219 15.75 L 21.449219 15.75 Z M 21.449219 3.75 " clip-rule="nonzero"/></clipPath></defs><path fill="#bce4f8" d="M 6.058594 23.453125 L 24.609375 23.453125 C 24.804688 23.453125 25 23.472656 25.191406 23.507812 L 24.199219 14.933594 C 24.148438 14.507812 24.027344 14.105469 23.828125 13.726562 C 23.628906 13.347656 23.371094 13.015625 23.050781 12.730469 C 22.726562 12.445312 22.367188 12.230469 21.964844 12.078125 C 21.5625 11.929688 21.148438 11.855469 20.722656 11.855469 L 9.925781 11.855469 C 9.5 11.855469 9.082031 11.929688 8.683594 12.078125 C 8.28125 12.230469 7.917969 12.445312 7.597656 12.730469 C 7.277344 13.015625 7.019531 13.347656 6.820312 13.726562 C 6.621094 14.105469 6.496094 14.507812 6.449219 14.933594 L 5.53125 23.496094 C 5.707031 23.46875 5.882812 23.453125 6.058594 23.453125 Z M 6.058594 23.453125 " fill-opacity="1" fill-rule="nonzero"/><path fill="#3079e6" d="M 6.105469 18.234375 L 4.902344 18.234375 C 4.671875 18.234375 4.449219 18.277344 4.234375 18.367188 C 4.023438 18.453125 3.832031 18.582031 3.671875 18.742188 C 3.507812 18.90625 3.382812 19.09375 3.292969 19.308594 C 3.207031 19.519531 3.160156 19.742188 3.160156 19.972656 C 3.160156 20.203125 3.207031 20.425781 3.292969 20.636719 C 3.382812 20.851562 3.507812 21.039062 3.671875 21.203125 C 3.832031 21.367188 4.023438 21.492188 4.234375 21.578125 C 4.449219 21.667969 4.671875 21.710938 4.902344 21.710938 L 5.722656 21.710938 Z M 6.105469 18.234375 " fill-opacity="1" fill-rule="nonzero"/><path fill="#3079e6" d="M 25.769531 18.234375 L 24.609375 18.234375 L 25.015625 21.710938 L 25.769531 21.710938 C 26 21.710938 26.222656 21.667969 26.4375 21.578125 C 26.648438 21.492188 26.835938 21.367188 27 21.203125 C 27.164062 21.039062 27.289062 20.851562 27.375 20.636719 C 27.464844 20.425781 27.507812 20.203125 27.507812 19.972656 C 27.507812 19.742188 27.464844 19.519531 27.375 19.308594 C 27.289062 19.09375 27.164062 18.90625 27 18.742188 C 26.835938 18.582031 26.648438 18.453125 26.4375 18.367188 C 26.222656 18.277344 26 18.234375 25.769531 18.234375 Z M 25.769531 18.234375 " fill-opacity="1" fill-rule="nonzero"/><path fill="#e4f5fd" d="M 22.292969 19.394531 L 22.292969 12.234375 C 21.804688 11.988281 21.289062 11.863281 20.742188 11.855469 L 15.335938 11.855469 L 15.335938 21.132812 L 20.554688 21.132812 C 20.785156 21.132812 21.003906 21.089844 21.21875 21 C 21.429688 20.910156 21.621094 20.785156 21.78125 20.625 C 21.945312 20.460938 22.070312 20.273438 22.160156 20.058594 C 22.246094 19.847656 22.292969 19.625 22.292969 19.394531 Z M 22.292969 19.394531 " fill-opacity="1" fill-rule="nonzero"/><path fill="#e4f5fd" d="M 11.277344 21.132812 C 11.507812 21.132812 11.730469 21.089844 11.941406 21 C 12.15625 20.910156 12.34375 20.785156 12.507812 20.625 C 12.671875 20.460938 12.796875 20.273438 12.882812 20.058594 C 12.972656 19.847656 13.015625 19.625 13.015625 19.394531 L 13.015625 11.855469 L 9.925781 11.855469 C 9.5 11.855469 9.082031 11.929688 8.683594 12.078125 C 8.28125 12.230469 7.917969 12.445312 7.597656 12.730469 C 7.277344 13.015625 7.019531 13.347656 6.820312 13.726562 C 6.621094 14.105469 6.496094 14.507812 6.449219 14.933594 L 5.789062 21.132812 Z M 11.277344 21.132812 " fill-opacity="1" fill-rule="nonzero"/><path fill="#2763bb" d="M 9.925781 11.855469 C 9.5 11.855469 9.082031 11.929688 8.683594 12.078125 C 8.28125 12.230469 7.917969 12.445312 7.597656 12.730469 C 7.277344 13.015625 7.019531 13.347656 6.820312 13.726562 C 6.621094 14.105469 6.496094 14.507812 6.449219 14.933594 L 6.402344 15.335938 L 24.25 15.335938 L 24.199219 14.933594 C 24.148438 14.507812 24.027344 14.105469 23.828125 13.726562 C 23.628906 13.347656 23.371094 13.015625 23.050781 12.730469 C 22.726562 12.445312 22.367188 12.230469 21.964844 12.078125 C 21.5625 11.929688 21.148438 11.855469 20.722656 11.855469 Z M 9.925781 11.855469 " fill-opacity="1" fill-rule="nonzero"/><path fill="#3079e6" d="M 19.394531 13.597656 C 19.621094 13.597656 19.839844 13.554688 20.050781 13.46875 C 20.261719 13.382812 20.449219 13.257812 20.609375 13.097656 C 20.773438 12.941406 20.898438 12.753906 20.992188 12.546875 C 21.082031 12.335938 21.128906 12.121094 21.132812 11.890625 C 21.003906 11.890625 20.882812 11.855469 20.75 11.855469 L 9.925781 11.855469 C 9.308594 11.859375 8.730469 12.015625 8.191406 12.324219 C 7.65625 12.636719 7.234375 13.058594 6.921875 13.597656 Z M 19.394531 13.597656 " fill-opacity="1" fill-rule="nonzero"/><path fill="#2763bb" d="M 24.609375 23.453125 L 6.058594 23.453125 C 5.597656 23.453125 5.15625 23.539062 4.730469 23.714844 C 4.304688 23.894531 3.925781 24.144531 3.601562 24.46875 C 3.273438 24.796875 3.023438 25.171875 2.847656 25.597656 C 2.671875 26.023438 2.582031 26.46875 2.582031 26.929688 L 2.582031 31.566406 L 28.089844 31.566406 L 28.089844 26.929688 C 28.089844 26.46875 28 26.023438 27.824219 25.597656 C 27.648438 25.171875 27.394531 24.796875 27.070312 24.46875 C 26.742188 24.144531 26.367188 23.894531 25.941406 23.714844 C 25.515625 23.539062 25.070312 23.453125 24.609375 23.453125 Z M 24.609375 23.453125 " fill-opacity="1" fill-rule="nonzero"/><path fill="#3079e6" d="M 24.609375 29.828125 C 24.839844 29.828125 25.0625 29.785156 25.277344 29.695312 C 25.488281 29.609375 25.675781 29.480469 25.839844 29.320312 C 26.003906 29.15625 26.128906 28.96875 26.21875 28.753906 C 26.304688 28.542969 26.351562 28.320312 26.351562 28.089844 L 26.351562 23.921875 C 25.8125 23.609375 25.234375 23.453125 24.609375 23.453125 L 6.058594 23.453125 C 5.597656 23.453125 5.15625 23.539062 4.730469 23.714844 C 4.304688 23.894531 3.925781 24.144531 3.601562 24.46875 C 3.273438 24.796875 3.023438 25.171875 2.847656 25.597656 C 2.671875 26.023438 2.582031 26.46875 2.582031 26.929688 L 2.582031 29.828125 Z M 24.609375 29.828125 " fill-opacity="1" fill-rule="nonzero"/><g clip-path="url(#de22ebed2f)"><path fill="#f3a845" d="M 27.507812 1.421875 C 26.574219 1.421875 25.664062 1.570312 24.777344 1.863281 C 23.886719 2.15625 23.070312 2.582031 22.320312 3.140625 C 21.570312 3.699219 20.925781 4.359375 20.390625 5.125 C 19.851562 5.890625 19.449219 6.722656 19.179688 7.617188 C 18.914062 8.511719 18.792969 9.429688 18.816406 10.363281 C 18.84375 11.296875 19.015625 12.203125 19.335938 13.082031 C 19.65625 13.960938 20.101562 14.769531 20.683594 15.503906 C 21.261719 16.238281 21.941406 16.859375 22.722656 17.375 L 22.292969 19.394531 L 24.773438 18.367188 C 25.371094 18.566406 25.984375 18.699219 26.609375 18.765625 C 27.238281 18.832031 27.863281 18.828125 28.488281 18.761719 C 29.117188 18.691406 29.726562 18.554688 30.324219 18.351562 C 30.921875 18.148438 31.488281 17.882812 32.027344 17.554688 C 32.566406 17.230469 33.0625 16.847656 33.519531 16.414062 C 33.976562 15.980469 34.382812 15.5 34.734375 14.980469 C 35.085938 14.457031 35.378906 13.902344 35.609375 13.316406 C 35.839844 12.730469 36.007812 12.125 36.109375 11.503906 C 36.207031 10.882812 36.242188 10.257812 36.207031 9.628906 C 36.167969 9 36.066406 8.378906 35.898438 7.773438 C 35.726562 7.167969 35.492188 6.585938 35.199219 6.027344 C 34.902344 5.472656 34.546875 4.953125 34.140625 4.476562 C 33.730469 3.996094 33.273438 3.566406 32.773438 3.183594 C 32.269531 2.804688 31.734375 2.484375 31.160156 2.21875 C 30.585938 1.957031 29.992188 1.757812 29.378906 1.621094 C 28.761719 1.488281 28.140625 1.421875 27.507812 1.421875 Z M 27.507812 1.421875 " fill-opacity="1" fill-rule="nonzero"/></g><path fill="#eecc61" d="M 27.507812 1.421875 C 26.703125 1.421875 25.910156 1.53125 25.132812 1.753906 C 24.355469 1.972656 23.625 2.296875 22.9375 2.722656 C 22.25 3.144531 21.636719 3.65625 21.089844 4.25 C 20.546875 4.847656 20.09375 5.507812 19.730469 6.230469 C 19.371094 6.953125 19.113281 7.710938 18.964844 8.503906 C 18.816406 9.296875 18.777344 10.09375 18.847656 10.898438 C 18.921875 11.703125 19.101562 12.480469 19.390625 13.234375 C 19.679688 13.988281 20.066406 14.6875 20.554688 15.335938 L 29.828125 15.335938 C 30.289062 15.335938 30.734375 15.246094 31.160156 15.070312 C 31.585938 14.894531 31.960938 14.644531 32.289062 14.316406 C 32.613281 13.992188 32.863281 13.613281 33.042969 13.1875 C 33.21875 12.761719 33.304688 12.320312 33.304688 11.855469 L 33.304688 3.648438 C 32.511719 2.933594 31.613281 2.382812 30.613281 1.996094 C 29.613281 1.613281 28.578125 1.421875 27.507812 1.421875 Z M 27.507812 1.421875 " fill-opacity="1" fill-rule="nonzero"/><path fill="#fce79c" d="M 22.871094 6.058594 L 29.828125 6.058594 C 29.980469 6.058594 30.128906 6.089844 30.273438 6.148438 C 30.414062 6.207031 30.539062 6.289062 30.648438 6.398438 C 30.757812 6.507812 30.839844 6.632812 30.898438 6.777344 C 30.957031 6.917969 30.988281 7.066406 30.988281 7.21875 L 30.988281 10.699219 C 30.988281 10.851562 30.957031 11 30.898438 11.140625 C 30.839844 11.285156 30.757812 11.410156 30.648438 11.515625 C 30.539062 11.625 30.414062 11.710938 30.273438 11.769531 C 30.128906 11.828125 29.980469 11.855469 29.828125 11.855469 L 22.871094 11.855469 C 22.71875 11.855469 22.570312 11.828125 22.429688 11.769531 C 22.285156 11.710938 22.160156 11.625 22.050781 11.515625 C 21.941406 11.410156 21.859375 11.285156 21.800781 11.140625 C 21.742188 11 21.710938 10.851562 21.710938 10.699219 L 21.710938 7.21875 C 21.710938 7.066406 21.742188 6.917969 21.800781 6.777344 C 21.859375 6.632812 21.941406 6.507812 22.050781 6.398438 C 22.160156 6.289062 22.285156 6.207031 22.429688 6.148438 C 22.570312 6.089844 22.71875 6.058594 22.871094 6.058594 Z M 22.871094 6.058594 " fill-opacity="1" fill-rule="nonzero"/><path fill="#ffffff" d="M 23.453125 7.800781 L 23.453125 7.21875 C 23.453125 6.757812 23.539062 6.316406 23.714844 5.886719 C 23.894531 5.460938 24.144531 5.085938 24.46875 4.761719 C 24.796875 4.433594 25.171875 4.183594 25.597656 4.007812 C 26.023438 3.828125 26.46875 3.742188 26.929688 3.742188 C 27.390625 3.742188 27.835938 3.828125 28.261719 4.007812 C 28.6875 4.183594 29.0625 4.433594 29.390625 4.761719 C 29.714844 5.085938 29.964844 5.460938 30.144531 5.886719 C 30.320312 6.316406 30.40625 6.757812 30.40625 7.21875 C 30.40625 8.378906 30 9.367188 29.179688 10.1875 C 28.839844 10.527344 28.667969 10.9375 28.667969 11.417969 L 28.667969 11.855469 L 26.351562 11.855469 L 26.351562 11.417969 C 26.351562 10.164062 26.792969 9.097656 27.675781 8.210938 C 27.953125 7.9375 28.089844 7.605469 28.089844 7.21875 C 28.089844 7.066406 28.058594 6.917969 28 6.777344 C 27.941406 6.632812 27.859375 6.507812 27.75 6.398438 C 27.640625 6.289062 27.515625 6.207031 27.375 6.148438 C 27.230469 6.089844 27.082031 6.058594 26.929688 6.058594 C 26.777344 6.058594 26.628906 6.089844 26.484375 6.148438 C 26.34375 6.207031 26.21875 6.289062 26.109375 6.398438 C 26 6.507812 25.917969 6.632812 25.859375 6.777344 C 25.800781 6.917969 25.769531 7.066406 25.769531 7.21875 L 25.769531 7.800781 Z M 23.453125 7.800781 " fill-opacity="1" fill-rule="nonzero"/><path fill="#ffffff" d="M 28.667969 14.753906 C 28.667969 14.910156 28.640625 15.058594 28.582031 15.199219 C 28.523438 15.339844 28.4375 15.46875 28.328125 15.574219 C 28.21875 15.683594 28.09375 15.769531 27.953125 15.828125 C 27.8125 15.886719 27.664062 15.914062 27.507812 15.914062 C 27.355469 15.914062 27.207031 15.886719 27.066406 15.828125 C 26.921875 15.769531 26.796875 15.683594 26.691406 15.574219 C 26.582031 15.46875 26.496094 15.339844 26.4375 15.199219 C 26.378906 15.058594 26.351562 14.910156 26.351562 14.753906 C 26.351562 14.601562 26.378906 14.453125 26.4375 14.3125 C 26.496094 14.171875 26.582031 14.042969 26.691406 13.9375 C 26.796875 13.828125 26.921875 13.742188 27.066406 13.683594 C 27.207031 13.625 27.355469 13.597656 27.507812 13.597656 C 27.664062 13.597656 27.8125 13.625 27.953125 13.683594 C 28.09375 13.742188 28.21875 13.828125 28.328125 13.9375 C 28.4375 14.042969 28.523438 14.171875 28.582031 14.3125 C 28.640625 14.453125 28.667969 14.601562 28.667969 14.753906 Z M 28.667969 14.753906 " fill-opacity="1" fill-rule="nonzero"/><path fill="#474747" d="M 1.421875 31.566406 L 29.25 31.566406 L 29.25 33.886719 L 1.421875 33.886719 Z M 1.421875 31.566406 " fill-opacity="1" fill-rule="nonzero"/><path fill="#f3a845" d="M 25.769531 27.507812 C 25.769531 27.664062 25.742188 27.8125 25.683594 27.953125 C 25.625 28.09375 25.539062 28.21875 25.429688 28.328125 C 25.320312 28.4375 25.195312 28.523438 25.054688 28.582031 C 24.914062 28.640625 24.765625 28.667969 24.609375 28.667969 C 24.457031 28.667969 24.308594 28.640625 24.167969 28.582031 C 24.023438 28.523438 23.898438 28.4375 23.789062 28.328125 C 23.683594 28.21875 23.597656 28.09375 23.539062 27.953125 C 23.480469 27.8125 23.453125 27.664062 23.453125 27.507812 C 23.453125 27.355469 23.480469 27.207031 23.539062 27.066406 C 23.597656 26.921875 23.683594 26.796875 23.789062 26.691406 C 23.898438 26.582031 24.023438 26.496094 24.167969 26.4375 C 24.308594 26.378906 24.457031 26.351562 24.609375 26.351562 C 24.765625 26.351562 24.914062 26.378906 25.054688 26.4375 C 25.195312 26.496094 25.320312 26.582031 25.429688 26.691406 C 25.539062 26.796875 25.625 26.921875 25.683594 27.066406 C 25.742188 27.207031 25.769531 27.355469 25.769531 27.507812 Z M 25.769531 27.507812 " fill-opacity="1" fill-rule="nonzero"/><path fill="#73a4ea" d="M 9.539062 25.769531 L 21.132812 25.769531 L 21.132812 31.566406 L 9.539062 31.566406 Z M 9.539062 25.769531 " fill-opacity="1" fill-rule="nonzero"/><g clip-path="url(#8723e31c1d)"><path fill="#686868" d="M 3.742188 33.886719 L 3.742188 35.046875 C 3.742188 35.199219 3.769531 35.347656 3.828125 35.488281 C 3.886719 35.632812 3.972656 35.757812 4.082031 35.867188 C 4.191406 35.972656 4.316406 36.058594 4.457031 36.117188 C 4.597656 36.175781 4.746094 36.203125 4.902344 36.203125 L 8.378906 36.203125 C 8.53125 36.203125 8.679688 36.175781 8.824219 36.117188 C 8.964844 36.058594 9.089844 35.972656 9.199219 35.867188 C 9.308594 35.757812 9.390625 35.632812 9.449219 35.488281 C 9.507812 35.347656 9.539062 35.199219 9.539062 35.046875 L 9.539062 33.886719 Z M 3.742188 33.886719 " fill-opacity="1" fill-rule="nonzero"/></g><g clip-path="url(#80915249f9)"><path fill="#686868" d="M 21.132812 33.886719 L 21.132812 35.046875 C 21.132812 35.199219 21.160156 35.347656 21.222656 35.488281 C 21.28125 35.632812 21.363281 35.757812 21.472656 35.867188 C 21.582031 35.972656 21.707031 36.058594 21.847656 36.117188 C 21.992188 36.175781 22.136719 36.203125 22.292969 36.203125 L 25.769531 36.203125 C 25.925781 36.203125 26.070312 36.175781 26.214844 36.117188 C 26.355469 36.058594 26.480469 35.972656 26.589844 35.867188 C 26.699219 35.757812 26.78125 35.632812 26.839844 35.488281 C 26.898438 35.347656 26.929688 35.199219 26.929688 35.046875 L 26.929688 33.886719 Z M 21.132812 33.886719 " fill-opacity="1" fill-rule="nonzero"/></g><path fill="#686868" d="M 1.421875 31.566406 L 1.421875 32.726562 L 26.351562 32.726562 C 26.71875 32.726562 27.050781 32.617188 27.351562 32.40625 C 27.652344 32.195312 27.863281 31.914062 27.984375 31.566406 Z M 1.421875 31.566406 " fill-opacity="1" fill-rule="nonzero"/><path fill="#eecc61" d="M 24.609375 26.351562 C 24.507812 26.351562 24.410156 26.363281 24.3125 26.390625 C 24.214844 26.417969 24.121094 26.457031 24.035156 26.507812 C 23.945312 26.558594 23.867188 26.621094 23.792969 26.691406 C 23.722656 26.765625 23.664062 26.84375 23.613281 26.933594 C 23.5625 27.019531 23.523438 27.113281 23.496094 27.210938 C 23.472656 27.308594 23.457031 27.410156 23.457031 27.511719 C 23.457031 27.613281 23.472656 27.710938 23.5 27.808594 C 23.523438 27.910156 23.5625 28 23.613281 28.089844 L 24.03125 28.089844 C 24.183594 28.089844 24.332031 28.058594 24.476562 28 C 24.617188 27.941406 24.742188 27.859375 24.851562 27.75 C 24.960938 27.640625 25.042969 27.515625 25.101562 27.375 C 25.160156 27.230469 25.191406 27.082031 25.191406 26.929688 L 25.191406 26.511719 C 25.011719 26.40625 24.820312 26.351562 24.609375 26.351562 Z M 24.609375 26.351562 " fill-opacity="1" fill-rule="nonzero"/><path fill="#f3a845" d="M 7.21875 27.507812 C 7.21875 27.664062 7.191406 27.8125 7.132812 27.953125 C 7.074219 28.09375 6.988281 28.21875 6.878906 28.328125 C 6.769531 28.4375 6.644531 28.523438 6.503906 28.582031 C 6.363281 28.640625 6.214844 28.667969 6.058594 28.667969 C 5.90625 28.667969 5.757812 28.640625 5.617188 28.582031 C 5.472656 28.523438 5.347656 28.4375 5.238281 28.328125 C 5.132812 28.21875 5.046875 28.09375 4.988281 27.953125 C 4.929688 27.8125 4.902344 27.664062 4.902344 27.507812 C 4.902344 27.355469 4.929688 27.207031 4.988281 27.066406 C 5.046875 26.921875 5.132812 26.796875 5.238281 26.691406 C 5.347656 26.582031 5.472656 26.496094 5.617188 26.4375 C 5.757812 26.378906 5.90625 26.351562 6.058594 26.351562 C 6.214844 26.351562 6.363281 26.378906 6.503906 26.4375 C 6.644531 26.496094 6.769531 26.582031 6.878906 26.691406 C 6.988281 26.796875 7.074219 26.921875 7.132812 27.066406 C 7.191406 27.207031 7.21875 27.355469 7.21875 27.507812 Z M 7.21875 27.507812 " fill-opacity="1" fill-rule="nonzero"/><path fill="#eecc61" d="M 6.058594 26.351562 C 5.957031 26.351562 5.859375 26.363281 5.761719 26.390625 C 5.664062 26.417969 5.570312 26.457031 5.484375 26.507812 C 5.394531 26.558594 5.316406 26.621094 5.242188 26.691406 C 5.171875 26.765625 5.113281 26.84375 5.0625 26.933594 C 5.011719 27.019531 4.972656 27.113281 4.945312 27.210938 C 4.921875 27.308594 4.90625 27.410156 4.90625 27.511719 C 4.90625 27.613281 4.921875 27.710938 4.949219 27.808594 C 4.972656 27.910156 5.011719 28 5.0625 28.089844 L 5.480469 28.089844 C 5.632812 28.089844 5.78125 28.058594 5.925781 28 C 6.066406 27.941406 6.191406 27.859375 6.300781 27.75 C 6.410156 27.640625 6.492188 27.515625 6.550781 27.375 C 6.609375 27.230469 6.640625 27.082031 6.640625 26.929688 L 6.640625 26.511719 C 6.460938 26.40625 6.269531 26.351562 6.058594 26.351562 Z M 6.058594 26.351562 " fill-opacity="1" fill-rule="nonzero"/><path fill="#000000" d="M 6.058594 25.769531 C 5.828125 25.769531 5.609375 25.8125 5.394531 25.902344 C 5.179688 25.992188 4.992188 26.117188 4.832031 26.28125 C 4.667969 26.441406 4.542969 26.628906 4.453125 26.84375 C 4.363281 27.058594 4.320312 27.277344 4.320312 27.507812 C 4.320312 27.738281 4.363281 27.960938 4.453125 28.175781 C 4.542969 28.386719 4.667969 28.574219 4.832031 28.738281 C 4.992188 28.902344 5.179688 29.027344 5.394531 29.117188 C 5.609375 29.203125 5.828125 29.25 6.058594 29.25 C 6.289062 29.25 6.511719 29.203125 6.726562 29.117188 C 6.9375 29.027344 7.125 28.902344 7.289062 28.738281 C 7.453125 28.574219 7.578125 28.386719 7.667969 28.175781 C 7.753906 27.960938 7.800781 27.738281 7.800781 27.507812 C 7.800781 27.277344 7.753906 27.058594 7.667969 26.84375 C 7.578125 26.628906 7.453125 26.441406 7.289062 26.28125 C 7.125 26.117188 6.9375 25.992188 6.726562 25.902344 C 6.511719 25.8125 6.289062 25.769531 6.058594 25.769531 Z M 6.058594 28.089844 C 5.898438 28.089844 5.761719 28.03125 5.648438 27.917969 C 5.535156 27.804688 5.480469 27.667969 5.480469 27.507812 C 5.480469 27.347656 5.535156 27.210938 5.648438 27.097656 C 5.761719 26.984375 5.898438 26.929688 6.058594 26.929688 C 6.21875 26.929688 6.355469 26.984375 6.46875 27.097656 C 6.582031 27.210938 6.640625 27.347656 6.640625 27.507812 C 6.640625 27.667969 6.582031 27.804688 6.46875 27.917969 C 6.355469 28.03125 6.21875 28.089844 6.058594 28.089844 Z M 6.058594 28.089844 " fill-opacity="1" fill-rule="nonzero"/><path fill="#000000" d="M 22.871094 27.507812 C 22.871094 27.738281 22.914062 27.960938 23.003906 28.175781 C 23.09375 28.386719 23.21875 28.574219 23.382812 28.738281 C 23.542969 28.902344 23.730469 29.027344 23.945312 29.117188 C 24.160156 29.203125 24.378906 29.25 24.609375 29.25 C 24.839844 29.25 25.0625 29.203125 25.277344 29.117188 C 25.488281 29.027344 25.675781 28.902344 25.839844 28.738281 C 26.003906 28.574219 26.128906 28.386719 26.21875 28.175781 C 26.304688 27.960938 26.351562 27.738281 26.351562 27.507812 C 26.351562 27.277344 26.304688 27.058594 26.21875 26.84375 C 26.128906 26.628906 26.003906 26.441406 25.839844 26.28125 C 25.675781 26.117188 25.488281 25.992188 25.277344 25.902344 C 25.0625 25.8125 24.839844 25.769531 24.609375 25.769531 C 24.378906 25.769531 24.160156 25.8125 23.945312 25.902344 C 23.730469 25.992188 23.542969 26.117188 23.382812 26.28125 C 23.21875 26.441406 23.09375 26.628906 23.003906 26.84375 C 22.914062 27.058594 22.871094 27.277344 22.871094 27.507812 Z M 25.191406 27.507812 C 25.191406 27.667969 25.132812 27.804688 25.019531 27.917969 C 24.90625 28.03125 24.769531 28.089844 24.609375 28.089844 C 24.449219 28.089844 24.3125 28.03125 24.199219 27.917969 C 24.085938 27.804688 24.03125 27.667969 24.03125 27.507812 C 24.03125 27.347656 24.085938 27.210938 24.199219 27.097656 C 24.3125 26.984375 24.449219 26.929688 24.609375 26.929688 C 24.769531 26.929688 24.90625 26.984375 25.019531 27.097656 C 25.132812 27.210938 25.191406 27.347656 25.191406 27.507812 Z M 25.191406 27.507812 " fill-opacity="1" fill-rule="nonzero"/><g clip-path="url(#2e663d85d2)"><path fill="#000000" d="M 36.785156 10.117188 C 36.785156 9.507812 36.726562 8.90625 36.605469 8.308594 C 36.488281 7.710938 36.3125 7.132812 36.078125 6.570312 C 35.84375 6.003906 35.558594 5.472656 35.222656 4.964844 C 34.882812 4.457031 34.5 3.988281 34.066406 3.558594 C 33.636719 3.128906 33.167969 2.746094 32.664062 2.40625 C 32.15625 2.066406 31.621094 1.78125 31.058594 1.546875 C 30.496094 1.316406 29.917969 1.140625 29.320312 1.019531 C 28.722656 0.902344 28.117188 0.84375 27.507812 0.84375 C 26.898438 0.84375 26.296875 0.902344 25.699219 1.019531 C 25.101562 1.140625 24.523438 1.316406 23.960938 1.546875 C 23.398438 1.78125 22.863281 2.066406 22.355469 2.40625 C 21.851562 2.746094 21.382812 3.128906 20.949219 3.558594 C 20.519531 3.988281 20.136719 4.457031 19.796875 4.964844 C 19.457031 5.472656 19.171875 6.003906 18.941406 6.570312 C 18.707031 7.132812 18.53125 7.710938 18.414062 8.308594 C 18.292969 8.90625 18.234375 9.507812 18.234375 10.117188 C 18.234375 10.507812 18.257812 10.894531 18.308594 11.277344 L 9.925781 11.277344 C 9.425781 11.273438 8.941406 11.359375 8.476562 11.535156 C 8.007812 11.710938 7.585938 11.964844 7.210938 12.296875 C 6.835938 12.625 6.535156 13.011719 6.300781 13.457031 C 6.070312 13.898438 5.925781 14.371094 5.867188 14.867188 L 5.566406 17.652344 L 4.902344 17.652344 C 4.59375 17.652344 4.296875 17.714844 4.011719 17.832031 C 3.730469 17.949219 3.476562 18.117188 3.261719 18.332031 C 3.042969 18.550781 2.875 18.800781 2.757812 19.085938 C 2.640625 19.371094 2.582031 19.664062 2.582031 19.972656 C 2.582031 20.28125 2.640625 20.578125 2.757812 20.859375 C 2.875 21.144531 3.042969 21.394531 3.261719 21.613281 C 3.476562 21.832031 3.730469 21.996094 4.011719 22.117188 C 4.296875 22.234375 4.59375 22.292969 4.902344 22.292969 L 5.035156 22.292969 L 4.945312 23.027344 C 4.523438 23.148438 4.128906 23.335938 3.765625 23.582031 C 3.402344 23.832031 3.085938 24.132812 2.820312 24.484375 C 2.554688 24.835938 2.351562 25.222656 2.210938 25.640625 C 2.074219 26.058594 2.003906 26.488281 2.003906 26.929688 L 2.003906 30.988281 L 1.421875 30.988281 C 1.261719 30.988281 1.125 31.042969 1.011719 31.15625 C 0.898438 31.269531 0.84375 31.40625 0.84375 31.566406 L 0.84375 33.886719 C 0.84375 34.046875 0.898438 34.183594 1.011719 34.296875 C 1.125 34.410156 1.261719 34.464844 1.421875 34.464844 L 3.160156 34.464844 L 3.160156 35.046875 C 3.160156 35.277344 3.207031 35.496094 3.292969 35.710938 C 3.382812 35.925781 3.507812 36.113281 3.671875 36.273438 C 3.832031 36.4375 4.023438 36.5625 4.234375 36.652344 C 4.449219 36.742188 4.671875 36.785156 4.902344 36.785156 L 8.378906 36.785156 C 8.609375 36.785156 8.832031 36.742188 9.042969 36.652344 C 9.257812 36.5625 9.445312 36.4375 9.609375 36.273438 C 9.773438 36.113281 9.898438 35.925781 9.984375 35.710938 C 10.074219 35.496094 10.117188 35.277344 10.117188 35.046875 L 10.117188 34.464844 L 20.554688 34.464844 L 20.554688 35.046875 C 20.554688 35.277344 20.597656 35.496094 20.683594 35.710938 C 20.773438 35.925781 20.898438 36.113281 21.0625 36.273438 C 21.226562 36.4375 21.414062 36.5625 21.625 36.652344 C 21.839844 36.742188 22.0625 36.785156 22.292969 36.785156 L 25.769531 36.785156 C 26 36.785156 26.222656 36.742188 26.4375 36.652344 C 26.648438 36.5625 26.835938 36.4375 27 36.273438 C 27.164062 36.113281 27.289062 35.925781 27.375 35.710938 C 27.464844 35.496094 27.507812 35.277344 27.507812 35.046875 L 27.507812 34.464844 L 29.25 34.464844 C 29.410156 34.464844 29.546875 34.410156 29.660156 34.296875 C 29.773438 34.183594 29.828125 34.046875 29.828125 33.886719 L 29.828125 31.566406 C 29.828125 31.40625 29.773438 31.269531 29.660156 31.15625 C 29.546875 31.042969 29.410156 30.988281 29.25 30.988281 L 28.667969 30.988281 L 28.667969 26.929688 C 28.667969 26.488281 28.597656 26.058594 28.457031 25.640625 C 28.316406 25.222656 28.117188 24.835938 27.851562 24.484375 C 27.582031 24.132812 27.269531 23.832031 26.90625 23.582031 C 26.542969 23.335938 26.148438 23.148438 25.722656 23.027344 L 25.636719 22.292969 L 25.769531 22.292969 C 25.945312 22.289062 26.121094 22.269531 26.292969 22.230469 C 26.464844 22.1875 26.628906 22.128906 26.785156 22.050781 C 26.945312 21.972656 27.09375 21.878906 27.226562 21.765625 C 27.363281 21.652344 27.488281 21.527344 27.59375 21.386719 C 27.703125 21.25 27.792969 21.097656 27.867188 20.9375 C 27.9375 20.777344 27.992188 20.609375 28.027344 20.4375 C 28.0625 20.265625 28.078125 20.089844 28.074219 19.914062 C 28.070312 19.738281 28.046875 19.5625 28.003906 19.394531 C 28.589844 19.363281 29.167969 19.277344 29.742188 19.132812 C 30.3125 18.992188 30.867188 18.796875 31.402344 18.550781 C 31.933594 18.304688 32.441406 18.007812 32.917969 17.664062 C 33.398438 17.320312 33.839844 16.9375 34.246094 16.507812 C 34.648438 16.082031 35.011719 15.617188 35.328125 15.121094 C 35.644531 14.625 35.910156 14.105469 36.128906 13.558594 C 36.347656 13.011719 36.511719 12.449219 36.621094 11.867188 C 36.730469 11.289062 36.785156 10.707031 36.785156 10.117188 Z M 9.925781 12.4375 L 18.53125 12.4375 C 18.738281 13.253906 19.054688 14.027344 19.480469 14.753906 L 7.097656 14.753906 C 7.164062 14.429688 7.285156 14.125 7.457031 13.839844 C 7.628906 13.554688 7.84375 13.304688 8.101562 13.09375 C 8.359375 12.882812 8.644531 12.71875 8.957031 12.609375 C 9.269531 12.496094 9.59375 12.4375 9.925781 12.4375 Z M 21.921875 19.839844 C 22.027344 19.929688 22.152344 19.972656 22.292969 19.972656 C 22.367188 19.976562 22.441406 19.960938 22.511719 19.925781 L 24.117188 19.265625 L 24.542969 22.871094 L 15.914062 22.871094 L 15.914062 15.914062 L 20.273438 15.914062 C 20.796875 16.574219 21.394531 17.15625 22.070312 17.652344 L 21.710938 19.273438 C 21.664062 19.503906 21.734375 19.691406 21.921875 19.839844 Z M 6.605469 18.8125 L 6.640625 18.8125 L 6.640625 18.488281 L 6.941406 15.914062 L 14.753906 15.914062 L 14.753906 22.871094 L 6.128906 22.871094 Z M 4.902344 21.132812 C 4.746094 21.132812 4.597656 21.101562 4.457031 21.042969 C 4.316406 20.984375 4.191406 20.902344 4.082031 20.792969 C 3.972656 20.683594 3.886719 20.558594 3.828125 20.417969 C 3.769531 20.273438 3.742188 20.125 3.742188 19.972656 C 3.742188 19.820312 3.769531 19.671875 3.828125 19.53125 C 3.886719 19.386719 3.972656 19.261719 4.082031 19.152344 C 4.191406 19.042969 4.316406 18.960938 4.457031 18.902344 C 4.597656 18.84375 4.746094 18.8125 4.902344 18.8125 L 5.433594 18.8125 L 5.167969 21.132812 Z M 8.957031 35.046875 C 8.957031 35.207031 8.902344 35.34375 8.789062 35.457031 C 8.675781 35.570312 8.539062 35.625 8.378906 35.625 L 4.902344 35.625 C 4.742188 35.625 4.605469 35.570312 4.492188 35.457031 C 4.378906 35.34375 4.320312 35.207031 4.320312 35.046875 L 4.320312 34.464844 L 8.957031 34.464844 Z M 26.351562 35.046875 C 26.351562 35.207031 26.292969 35.34375 26.179688 35.457031 C 26.066406 35.570312 25.929688 35.625 25.769531 35.625 L 22.292969 35.625 C 22.132812 35.625 21.996094 35.570312 21.882812 35.457031 C 21.769531 35.34375 21.710938 35.207031 21.710938 35.046875 L 21.710938 34.464844 L 26.351562 34.464844 Z M 28.667969 33.304688 L 2.003906 33.304688 L 2.003906 32.148438 L 28.667969 32.148438 Z M 20.554688 28.089844 L 10.117188 28.089844 L 10.117188 26.351562 L 20.554688 26.351562 Z M 10.117188 29.25 L 20.554688 29.25 L 20.554688 30.988281 L 10.117188 30.988281 Z M 27.507812 26.929688 L 27.507812 30.988281 L 21.710938 30.988281 L 21.710938 25.769531 C 21.710938 25.609375 21.65625 25.472656 21.542969 25.359375 C 21.429688 25.246094 21.292969 25.191406 21.132812 25.191406 L 9.539062 25.191406 C 9.378906 25.191406 9.242188 25.246094 9.128906 25.359375 C 9.015625 25.472656 8.957031 25.609375 8.957031 25.769531 L 8.957031 30.988281 L 3.160156 30.988281 L 3.160156 26.929688 C 3.160156 26.546875 3.234375 26.175781 3.382812 25.820312 C 3.527344 25.464844 3.738281 25.152344 4.011719 24.878906 C 4.28125 24.609375 4.59375 24.398438 4.949219 24.25 C 5.304688 24.105469 5.675781 24.03125 6.058594 24.03125 L 24.609375 24.03125 C 24.996094 24.03125 25.363281 24.105469 25.71875 24.25 C 26.074219 24.398438 26.386719 24.609375 26.660156 24.878906 C 26.933594 25.152344 27.140625 25.464844 27.289062 25.820312 C 27.4375 26.175781 27.507812 26.546875 27.507812 26.929688 Z M 25.769531 21.132812 L 25.503906 21.132812 L 25.273438 19.109375 C 25.757812 19.234375 26.253906 19.316406 26.753906 19.359375 C 26.871094 19.546875 26.929688 19.753906 26.929688 19.972656 C 26.929688 20.125 26.898438 20.273438 26.839844 20.417969 C 26.78125 20.558594 26.699219 20.683594 26.589844 20.792969 C 26.480469 20.902344 26.355469 20.984375 26.214844 21.042969 C 26.070312 21.101562 25.925781 21.132812 25.769531 21.132812 Z M 27.507812 18.234375 C 26.636719 18.234375 25.785156 18.09375 24.957031 17.816406 C 24.824219 17.765625 24.6875 17.765625 24.554688 17.816406 L 23.085938 18.394531 L 23.289062 17.453125 C 23.332031 17.203125 23.25 17.011719 23.039062 16.871094 C 22.773438 16.691406 22.515625 16.5 22.269531 16.289062 C 22.027344 16.082031 21.796875 15.859375 21.578125 15.625 C 21.359375 15.386719 21.15625 15.136719 20.96875 14.878906 C 20.777344 14.617188 20.605469 14.347656 20.449219 14.066406 C 20.292969 13.785156 20.152344 13.496094 20.03125 13.199219 C 19.910156 12.902344 19.804688 12.597656 19.71875 12.289062 C 19.632812 11.976562 19.566406 11.664062 19.519531 11.34375 C 19.46875 11.027344 19.441406 10.707031 19.429688 10.386719 C 19.417969 10.066406 19.425781 9.746094 19.453125 9.421875 C 19.480469 9.101562 19.527344 8.785156 19.59375 8.472656 C 19.660156 8.15625 19.742188 7.847656 19.84375 7.542969 C 19.945312 7.234375 20.066406 6.9375 20.203125 6.648438 C 20.339844 6.355469 20.496094 6.074219 20.667969 5.804688 C 20.835938 5.53125 21.023438 5.269531 21.226562 5.019531 C 21.429688 4.769531 21.644531 4.53125 21.875 4.308594 C 22.105469 4.082031 22.347656 3.871094 22.601562 3.675781 C 22.859375 3.480469 23.125 3.300781 23.402344 3.136719 C 23.675781 2.972656 23.960938 2.828125 24.257812 2.695312 C 24.550781 2.566406 24.851562 2.453125 25.160156 2.359375 C 25.464844 2.265625 25.777344 2.1875 26.09375 2.132812 C 26.410156 2.074219 26.730469 2.035156 27.050781 2.015625 C 27.371094 1.996094 27.691406 1.996094 28.015625 2.015625 C 28.335938 2.035156 28.652344 2.074219 28.96875 2.128906 C 29.289062 2.1875 29.597656 2.261719 29.90625 2.355469 C 30.214844 2.449219 30.515625 2.558594 30.808594 2.691406 C 31.105469 2.820312 31.390625 2.964844 31.667969 3.128906 C 31.945312 3.292969 32.210938 3.472656 32.464844 3.667969 C 32.722656 3.863281 32.964844 4.070312 33.195312 4.296875 C 33.425781 4.519531 33.640625 4.757812 33.84375 5.007812 C 34.046875 5.257812 34.234375 5.515625 34.40625 5.789062 C 34.578125 6.0625 34.730469 6.34375 34.871094 6.632812 C 35.007812 6.921875 35.128906 7.222656 35.230469 7.527344 C 35.335938 7.832031 35.417969 8.140625 35.484375 8.457031 C 35.550781 8.769531 35.597656 9.085938 35.625 9.40625 C 35.652344 9.726562 35.664062 10.050781 35.652344 10.371094 C 35.644531 10.691406 35.613281 11.011719 35.566406 11.328125 C 35.519531 11.648438 35.449219 11.960938 35.367188 12.273438 C 35.28125 12.582031 35.175781 12.886719 35.054688 13.183594 C 34.933594 13.480469 34.796875 13.769531 34.640625 14.050781 C 34.484375 14.332031 34.3125 14.605469 34.125 14.867188 C 33.933594 15.125 33.730469 15.375 33.515625 15.613281 C 33.296875 15.847656 33.066406 16.070312 32.820312 16.28125 C 32.578125 16.488281 32.320312 16.683594 32.054688 16.863281 C 31.789062 17.042969 31.511719 17.203125 31.222656 17.351562 C 30.9375 17.496094 30.644531 17.625 30.339844 17.734375 C 30.039062 17.847656 29.730469 17.9375 29.417969 18.011719 C 29.105469 18.089844 28.789062 18.144531 28.472656 18.179688 C 28.152344 18.21875 27.832031 18.234375 27.507812 18.234375 Z M 27.507812 18.234375 " fill-opacity="1" fill-rule="nonzero"/></g><path fill="#000000" d="M 26.929688 3.160156 C 26.664062 3.160156 26.398438 3.1875 26.136719 3.238281 C 25.875 3.292969 25.621094 3.367188 25.375 3.46875 C 25.128906 3.574219 24.898438 3.699219 24.675781 3.84375 C 24.453125 3.992188 24.25 4.160156 24.058594 4.351562 C 23.871094 4.539062 23.703125 4.742188 23.554688 4.964844 C 23.40625 5.1875 23.28125 5.421875 23.179688 5.667969 C 23.078125 5.914062 23 6.167969 22.949219 6.429688 C 22.898438 6.6875 22.871094 6.953125 22.871094 7.21875 L 22.871094 7.800781 C 22.871094 7.960938 22.929688 8.097656 23.042969 8.210938 C 23.15625 8.324219 23.292969 8.378906 23.453125 8.378906 L 25.769531 8.378906 C 25.929688 8.378906 26.066406 8.324219 26.179688 8.210938 C 26.292969 8.097656 26.351562 7.960938 26.351562 7.800781 L 26.351562 7.21875 C 26.351562 7.058594 26.40625 6.921875 26.519531 6.808594 C 26.632812 6.695312 26.769531 6.640625 26.929688 6.640625 C 27.089844 6.640625 27.226562 6.695312 27.339844 6.808594 C 27.453125 6.921875 27.507812 7.058594 27.507812 7.21875 C 27.507812 7.445312 27.429688 7.636719 27.273438 7.800781 C 26.789062 8.277344 26.417969 8.832031 26.15625 9.457031 C 25.898438 10.085938 25.769531 10.738281 25.769531 11.417969 L 25.769531 11.855469 C 25.769531 12.015625 25.828125 12.152344 25.941406 12.265625 C 26.054688 12.378906 26.191406 12.4375 26.351562 12.4375 L 28.667969 12.4375 C 28.828125 12.4375 28.964844 12.378906 29.078125 12.265625 C 29.191406 12.152344 29.25 12.015625 29.25 11.855469 L 29.25 11.417969 C 29.25 11.097656 29.363281 10.824219 29.589844 10.597656 C 30.039062 10.152344 30.382812 9.632812 30.625 9.046875 C 30.867188 8.460938 30.988281 7.851562 30.988281 7.21875 C 30.988281 6.953125 30.960938 6.6875 30.910156 6.429688 C 30.859375 6.167969 30.78125 5.914062 30.679688 5.667969 C 30.578125 5.421875 30.453125 5.1875 30.304688 4.964844 C 30.15625 4.742188 29.988281 4.539062 29.800781 4.351562 C 29.609375 4.160156 29.40625 3.992188 29.183594 3.84375 C 28.960938 3.699219 28.730469 3.574219 28.484375 3.46875 C 28.238281 3.367188 27.984375 3.292969 27.722656 3.238281 C 27.460938 3.1875 27.195312 3.160156 26.929688 3.160156 Z M 28.765625 9.777344 C 28.351562 10.191406 28.125 10.691406 28.089844 11.277344 L 26.929688 11.277344 C 26.964844 10.238281 27.351562 9.351562 28.089844 8.617188 C 28.476562 8.230469 28.671875 7.765625 28.667969 7.21875 C 28.667969 6.988281 28.625 6.765625 28.535156 6.554688 C 28.449219 6.339844 28.324219 6.152344 28.160156 5.988281 C 27.996094 5.828125 27.808594 5.699219 27.59375 5.613281 C 27.382812 5.523438 27.160156 5.480469 26.929688 5.480469 C 26.699219 5.480469 26.476562 5.523438 26.265625 5.613281 C 26.050781 5.699219 25.863281 5.828125 25.699219 5.988281 C 25.535156 6.152344 25.410156 6.339844 25.324219 6.554688 C 25.234375 6.765625 25.191406 6.988281 25.191406 7.21875 L 24.03125 7.21875 C 24.03125 6.835938 24.105469 6.464844 24.25 6.109375 C 24.398438 5.753906 24.609375 5.441406 24.878906 5.167969 C 25.152344 4.898438 25.464844 4.6875 25.820312 4.542969 C 26.175781 4.394531 26.546875 4.320312 26.929688 4.320312 C 27.3125 4.320312 27.683594 4.394531 28.039062 4.542969 C 28.394531 4.6875 28.707031 4.898438 28.980469 5.167969 C 29.25 5.441406 29.460938 5.753906 29.609375 6.109375 C 29.753906 6.464844 29.828125 6.835938 29.828125 7.21875 C 29.832031 8.21875 29.476562 9.070312 28.765625 9.777344 Z M 28.765625 9.777344 " fill-opacity="1" fill-rule="nonzero"/><path fill="#000000" d="M 27.507812 13.015625 C 27.277344 13.015625 27.058594 13.0625 26.84375 13.148438 C 26.628906 13.238281 26.441406 13.363281 26.28125 13.527344 C 26.117188 13.6875 25.992188 13.878906 25.902344 14.089844 C 25.8125 14.304688 25.769531 14.523438 25.769531 14.753906 C 25.769531 14.984375 25.8125 15.207031 25.902344 15.421875 C 25.992188 15.632812 26.117188 15.824219 26.28125 15.984375 C 26.441406 16.148438 26.628906 16.273438 26.84375 16.363281 C 27.058594 16.449219 27.277344 16.496094 27.507812 16.496094 C 27.738281 16.496094 27.960938 16.449219 28.175781 16.363281 C 28.386719 16.273438 28.574219 16.148438 28.738281 15.984375 C 28.902344 15.824219 29.027344 15.632812 29.117188 15.421875 C 29.203125 15.207031 29.25 14.984375 29.25 14.753906 C 29.25 14.523438 29.203125 14.304688 29.117188 14.089844 C 29.027344 13.878906 28.902344 13.6875 28.738281 13.527344 C 28.574219 13.363281 28.386719 13.238281 28.175781 13.148438 C 27.960938 13.0625 27.738281 13.015625 27.507812 13.015625 Z M 27.507812 15.335938 C 27.347656 15.335938 27.210938 15.277344 27.097656 15.164062 C 26.984375 15.050781 26.929688 14.914062 26.929688 14.753906 C 26.929688 14.59375 26.984375 14.457031 27.097656 14.347656 C 27.210938 14.234375 27.347656 14.175781 27.507812 14.175781 C 27.667969 14.175781 27.804688 14.234375 27.917969 14.347656 C 28.03125 14.457031 28.089844 14.59375 28.089844 14.753906 C 28.089844 14.914062 28.03125 15.050781 27.917969 15.164062 C 27.804688 15.277344 27.667969 15.335938 27.507812 15.335938 Z M 27.507812 15.335938 " fill-opacity="1" fill-rule="nonzero"/><g clip-path="url(#0c85c759ae)"><g clip-path="url(#29b1532061)"><path fill="#ffec9d" d="M 20.398438 2.023438 L 34.875 2.023438 L 34.875 16.5 L 20.398438 16.5 Z M 20.398438 2.023438 " fill-opacity="1" fill-rule="nonzero"/></g></g><g clip-path="url(#9a03d84ae4)"><path fill="#000000" d="M 27.449219 3.75 L 29.304688 7.699219 L 33.449219 8.332031 L 30.449219 11.40625 L 31.15625 15.746094 L 27.449219 13.699219 L 23.742188 15.746094 L 24.449219 11.40625 L 21.449219 8.332031 L 25.59375 7.699219 L 27.449219 3.75 " fill-opacity="1" fill-rule="nonzero"/></g><path fill="#ff914d" d="M 27.449219 5.363281 L 28.84375 8.328125 L 31.957031 8.804688 L 29.703125 11.117188 L 30.234375 14.378906 L 27.449219 12.835938 L 24.664062 14.378906 L 25.195312 11.117188 L 22.941406 8.804688 L 26.054688 8.328125 L 27.449219 5.363281 " fill-opacity="1" fill-rule="nonzero"/><path fill="#ffd600" d="M 27.449219 6.714844 L 28.457031 8.859375 L 30.707031 9.203125 L 29.078125 10.871094 L 29.460938 13.230469 L 27.449219 12.117188 L 25.4375 13.230469 L 25.820312 10.871094 L 24.191406 9.203125 L 26.441406 8.859375 L 27.449219 6.714844 " fill-opacity="1" fill-rule="nonzero"/></svg>